<svg width="24" height="25" viewBox="0 0 24 25" fill="none" xmlns="http://www.w3.org/2000/svg">
<path d="M12.0002 11.8881C11.0942 10.1271 8.62824 6.8441 6.33524 5.2261C4.13824 3.6761 3.30124 3.9431 2.75224 4.1931C2.11624 4.4781 2.00024 5.4551 2.00024 6.0281C2.00024 6.6031 2.31524 10.7371 2.52024 11.4281C3.20024 13.7081 5.61424 14.4781 7.84024 14.2311C4.58024 14.7141 1.68324 15.9011 5.48024 20.1291C9.65824 24.4541 11.2062 19.2021 12.0002 16.5391C12.7942 19.2021 13.7082 24.2651 18.4442 20.1291C22.0002 16.5391 19.4212 14.7141 16.1612 14.2311C18.3862 14.4781 20.8012 13.7081 21.4802 11.4281C21.6852 10.7381 22.0002 6.6031 22.0002 6.0291C22.0002 5.4541 21.8842 4.4791 21.2482 4.1911C20.6992 3.9431 19.8622 3.6741 17.6652 5.2241C15.3722 6.8451 12.9052 10.1281 12.0002 11.8881Z" fill="#0000FF"/>
</svg>
