<svg width="24" height="25" viewBox="0 0 24 25" fill="none" xmlns="http://www.w3.org/2000/svg">
<path fill-rule="evenodd" clip-rule="evenodd" d="M2.11351 4.86364C2.74645 4.2307 3.60489 3.87512 4.5 3.87512H19.5C20.3951 3.87512 21.2536 4.2307 21.8865 4.86364C22.5194 5.49657 22.875 6.35502 22.875 7.25012V7.493C22.875 7.49304 22.875 7.49296 22.875 7.493C22.875 7.49321 22.875 7.49354 22.875 7.49375V17.7501C22.875 18.6452 22.5194 19.5037 21.8865 20.1366C21.2536 20.7695 20.3951 21.1251 19.5 21.1251H4.5C3.60489 21.1251 2.74645 20.7695 2.11351 20.1366C1.48058 19.5037 1.125 18.6452 1.125 17.7501V7.49475V7.25012C1.125 6.35502 1.48058 5.49657 2.11351 4.86364ZM3.375 7.25012V7.49412C3.375 7.49421 3.375 7.49404 3.375 7.49412C3.37502 7.68611 3.42417 7.87527 3.51778 8.0429C3.61143 8.21059 3.74646 8.35152 3.91 8.45225L11.4095 13.0659C11.5869 13.1752 11.7917 13.2334 12 13.2334C12.2083 13.2334 12.4126 13.1755 12.59 13.0662L20.09 8.45125C20.2533 8.35053 20.3886 8.20944 20.4822 8.04189C20.5758 7.87427 20.625 7.68549 20.625 7.4935C20.625 7.49341 20.625 7.49358 20.625 7.4935V7.25012C20.625 6.95175 20.5065 6.66561 20.2955 6.45463C20.0845 6.24365 19.7984 6.12512 19.5 6.12512H4.5C4.20163 6.12512 3.91548 6.24365 3.7045 6.45463C3.49353 6.66561 3.375 6.95175 3.375 7.25012ZM20.625 10.7639L13.77 14.982C13.7699 14.9821 13.7701 14.9819 13.77 14.982C13.2379 15.3096 12.6249 15.4834 12 15.4834C11.375 15.4834 10.7622 15.3098 10.23 14.982L3.375 10.7648V17.7501C3.375 18.0485 3.49353 18.3346 3.7045 18.5456C3.91548 18.7566 4.20163 18.8751 4.5 18.8751H19.5C19.7984 18.8751 20.0845 18.7566 20.2955 18.5456C20.5065 18.3346 20.625 18.0485 20.625 17.7501V10.7639Z" fill="#0000FF"/>
</svg>
