<svg width="24" height="25" viewBox="0 0 24 25" fill="none" xmlns="http://www.w3.org/2000/svg">
<path d="M7.80024 2.50012H16.2002C19.4002 2.50012 22.0002 5.10012 22.0002 8.30012V16.7001C22.0002 18.2384 21.3892 19.7136 20.3015 20.8013C19.2138 21.8891 17.7385 22.5001 16.2002 22.5001H7.80024C4.60024 22.5001 2.00024 19.9001 2.00024 16.7001V8.30012C2.00024 6.76187 2.61131 5.28661 3.69902 4.1989C4.78674 3.11119 6.26199 2.50012 7.80024 2.50012ZM7.60024 4.50012C6.64546 4.50012 5.72979 4.87941 5.05466 5.55454C4.37953 6.22967 4.00024 7.14534 4.00024 8.10012V16.9001C4.00024 18.8901 5.61024 20.5001 7.60024 20.5001H16.4002C17.355 20.5001 18.2707 20.1208 18.9458 19.4457C19.621 18.7706 20.0002 17.8549 20.0002 16.9001V8.10012C20.0002 6.11012 18.3902 4.50012 16.4002 4.50012H7.60024ZM17.2502 6.00012C17.5818 6.00012 17.8997 6.13182 18.1341 6.36624C18.3685 6.60066 18.5002 6.9186 18.5002 7.25012C18.5002 7.58164 18.3685 7.89958 18.1341 8.134C17.8997 8.36843 17.5818 8.50012 17.2502 8.50012C16.9187 8.50012 16.6008 8.36843 16.3664 8.134C16.1319 7.89958 16.0002 7.58164 16.0002 7.25012C16.0002 6.9186 16.1319 6.60066 16.3664 6.36624C16.6008 6.13182 16.9187 6.00012 17.2502 6.00012ZM12.0002 7.50012C13.3263 7.50012 14.5981 8.02691 15.5358 8.96459C16.4735 9.90227 17.0002 11.174 17.0002 12.5001C17.0002 13.8262 16.4735 15.098 15.5358 16.0357C14.5981 16.9733 13.3263 17.5001 12.0002 17.5001C10.6742 17.5001 9.40239 16.9733 8.46471 16.0357C7.52703 15.098 7.00024 13.8262 7.00024 12.5001C7.00024 11.174 7.52703 9.90227 8.46471 8.96459C9.40239 8.02691 10.6742 7.50012 12.0002 7.50012ZM12.0002 9.50012C11.2046 9.50012 10.4415 9.81619 9.87892 10.3788C9.31631 10.9414 9.00024 11.7045 9.00024 12.5001C9.00024 13.2958 9.31631 14.0588 9.87892 14.6214C10.4415 15.1841 11.2046 15.5001 12.0002 15.5001C12.7959 15.5001 13.559 15.1841 14.1216 14.6214C14.6842 14.0588 15.0002 13.2958 15.0002 12.5001C15.0002 11.7045 14.6842 10.9414 14.1216 10.3788C13.559 9.81619 12.7959 9.50012 12.0002 9.50012Z" fill="#0000FF"/>
</svg>
