<svg width="24" height="25" viewBox="0 0 24 25" fill="none" xmlns="http://www.w3.org/2000/svg">
<path fill-rule="evenodd" clip-rule="evenodd" d="M5.45036 5.12312C6.99736 3.47412 9.24036 2.50012 12.0174 2.50012C16.5824 2.50012 19.6094 5.13112 20.5674 8.77712C20.6347 9.03372 20.5974 9.30657 20.4636 9.53564C20.3298 9.76472 20.1105 9.93126 19.8539 9.99862C19.5973 10.066 19.3244 10.0287 19.0953 9.89485C18.8663 9.76104 18.6997 9.54172 18.6324 9.28512C17.9054 6.52212 15.6764 4.50012 12.0164 4.50012C9.73036 4.50012 8.03636 5.28912 6.91036 6.49012C5.77436 7.70212 5.14136 9.41312 5.14136 11.3751V13.6251C5.14136 15.5871 5.77436 17.2981 6.91036 18.5091C8.03636 19.7121 9.73036 20.5001 12.0164 20.5001C13.6714 20.5001 14.9844 20.1161 15.9924 19.4951C17.0074 18.8701 17.6124 18.0411 17.7824 17.0901C17.9774 15.9941 17.7374 15.2421 17.3244 14.6991C17.0979 14.407 16.8225 14.1562 16.5104 13.9581C16.3754 14.7071 16.1344 15.4141 15.7704 15.9681C14.4284 18.0071 11.8624 18.1821 10.1704 17.5071C9.25436 17.1421 8.46936 16.1431 8.22536 15.0721C8.07722 14.4583 8.12656 13.8133 8.36636 13.2291C8.63136 12.5931 9.12236 12.0511 9.82136 11.6391C10.5134 11.2301 11.5414 11.0421 12.5604 11.0141C13.1744 10.9971 13.8404 11.0381 14.5104 11.1471C14.3704 10.4971 14.1334 10.0121 13.8664 9.76312C13.3824 9.31312 12.5804 8.99612 11.7764 9.00112C10.9994 9.00712 10.3404 9.30612 9.94636 9.93612C9.80579 10.161 9.58164 10.3209 9.32322 10.3805C9.06479 10.4402 8.79326 10.3947 8.56836 10.2541C8.34345 10.1136 8.1836 9.88941 8.12396 9.63098C8.06433 9.37256 8.10979 9.10103 8.25036 8.87612C9.08736 7.53812 10.4664 7.01112 11.7634 7.00112C13.0334 6.99212 14.3414 7.47312 15.2294 8.29912C16.1274 9.13512 16.5134 10.5061 16.6134 11.7531C17.4874 12.1341 18.3134 12.6931 18.9184 13.4901C19.6994 14.5201 20.0354 15.8481 19.7514 17.4411C19.4614 19.0651 18.4364 20.3391 17.0414 21.1981C15.6734 22.0401 13.9854 22.5001 12.0164 22.5001C9.24036 22.5001 6.99636 21.5261 5.45136 19.8771C3.91536 18.2391 3.14136 16.0131 3.14136 13.6251V11.3751C3.14136 8.98712 3.91536 6.76112 5.45136 5.12312H5.45036ZM14.6004 13.2001C13.9481 13.0595 13.2814 12.997 12.6144 13.0141C11.7234 13.0381 11.0984 13.2071 10.8374 13.3611C10.4534 13.5881 10.2874 13.8191 10.2134 13.9981C10.1344 14.1988 10.1211 14.4194 10.1754 14.6281C10.2974 15.1641 10.7004 15.5661 10.9114 15.6491C12.0374 16.0991 13.4464 15.8611 14.0994 14.8691C14.3344 14.5111 14.5214 13.9091 14.5994 13.2001H14.6004Z" fill="#0000FF"/>
</svg>
