<svg width="98" height="110" viewBox="0 0 98 110" fill="none" xmlns="http://www.w3.org/2000/svg">
<path d="M52.774 2.557C50.604 2.53 49.111 32.999 47.53 50.71C45.949 68.421 42.061 107.122 44.883 107.439C49.34 107.939 51.582 67.769 53.307 54.199C55.032 40.628 55.738 2.557 52.774 2.557Z" fill="#0000FF"/>
<path d="M97.67 34.57C96.715 32.626 67.704 45.452 51.152 52.041C34.6 58.63 -0.679046 72.249 0.311954 74.904C1.87795 79.098 38.813 62.954 51.728 58.362C64.643 53.771 99.009 37.209 97.67 34.57Z" fill="#0000FF"/>
<path d="M83.094 80.529C84.195 79.003 65.272 62.684 53.822 52.992C42.371 43.3 16.174 22.332 14.547 24.181C11.978 27.101 38.621 48.128 47.139 55.919C55.657 63.71 81.615 82.632 83.094 80.529Z" fill="#0000FF"/>
</svg>
