<svg width="843" height="246" viewBox="0 0 843 246" fill="none" xmlns="http://www.w3.org/2000/svg">
<g clip-path="url(#clip0_1_4)">
<path d="M0.133118 1.64163L48.1721 243.53L815.545 245.144L842.771 0.0282288L0.133118 1.64163Z" fill="#FFCD28"/>
<path d="M89.9995 15.9202C94.8397 17.4529 102.342 66.3792 103.108 74.4058C107.666 75.2126 106.335 74.2042 107.626 71.8244C112.627 62.628 121.985 23.3821 129.286 18.905H195.959L208.988 74.4058L230.406 18.1386L312.85 13.8631L227.864 219.289L161.352 220.378L146.428 173.186L125.293 218.563L73.0185 219.37L26.472 15.9202H89.9995Z" fill="black"/>
<path d="M526.424 12.4514C583.014 10.0716 607.699 41.2102 605.44 95.5414C602.939 155.882 583.74 223.847 509.685 219.531C461.525 216.748 438.453 183.996 440.107 137.933C442.164 79.8511 456.927 15.3958 526.424 12.4514Z" fill="black"/>
<path d="M435.791 76.4226H406.548L381.783 217.595H315.23L338.987 78.4394H300.669C301.798 70.0901 323.781 14.7908 327.492 13.7825L459.468 14.8312L435.791 76.4226Z" fill="black"/>
<path d="M819.699 76.4226H717.41L702.284 217.595H635.731L649.849 78.4394H611.531C612.66 70.0901 615.12 14.7908 618.831 13.7825L823.854 14.8312L819.699 76.4226Z" fill="black"/>
<path d="M816.755 90.6205L812.226 127.77L775.884 130.432L775.925 143.016L799.803 141.725L797.302 175.687H774.029L772.133 178.834L769.684 216.425L722.842 218.886L734.176 90.6205H816.755Z" fill="black"/>
<path d="M512.669 65.6129H545.058L530.618 93.8474H565.589L514.283 177.542L524.77 124.139H482.378L512.669 65.6129Z" fill="white"/>
</g>
<defs>
<clipPath id="clip0_1_4">
<rect width="842.638" height="245.116" fill="white" transform="translate(0.133118 0.0282288)"/>
</clipPath>
</defs>
</svg>
