<svg width="130" height="136" viewBox="0 0 130 136" fill="none" xmlns="http://www.w3.org/2000/svg">
<g clip-path="url(#clip0_9_190)">
<path d="M58.354 135.849C57.235 135.849 56.046 135.566 54.795 134.999C43.567 129.915 49.011 100.194 51.536 88.894C44.936 96.847 29.106 114.779 20.532 114.782C20.182 114.782 19.846 114.752 19.521 114.69C17.54 114.315 16.165 112.898 15.436 110.48C11.528 97.521 31.107 85.542 41.215 80.332C31.029 81.421 11.291 82.463 3.78601 75.417C1.46701 73.24 0.457006 70.465 0.785006 67.17C1.09601 64.05 2.546 61.696 5.097 60.175C14.303 54.682 35.888 61.8 44.592 65.052C37.821 56.841 20.323 34.275 23.243 23.675C23.933 21.167 25.66 19.447 28.373 18.563C31.814 17.441 35.311 17.812 38.767 19.664C50.415 25.905 59.088 47.589 62.948 58.937C62.654 43.686 63.131 9.50902 72.9 1.80802C74.955 0.188025 77.308 -0.244976 79.882 0.517024C82.142 1.18502 83.872 2.72603 85.024 5.09803C90.698 16.773 81.044 46.97 76.17 60.574C83.878 50.441 100.113 30.796 109.4 31.344C111.642 31.48 113.383 32.679 114.577 34.91C115.935 37.45 116.114 40.228 115.109 43.169C111.721 53.085 95.441 62.853 85.942 67.837C98.209 65.62 121.667 62.425 127.713 69.058C129.324 70.826 129.69 73.107 128.8 75.838C124.723 88.348 90.641 82.049 79.274 79.572C85.802 85.919 101.67 102.585 100.311 113.386C99.916 116.519 98.15 118.929 95.059 120.552C91.882 122.219 88.72 122.344 85.661 120.925C77.717 117.237 72.19 103.737 69.232 94.454C69.69 107.367 69.338 129.474 62.023 134.66C60.904 135.453 59.678 135.849 58.354 135.849ZM53.53 83.847C53.681 83.847 53.833 83.881 53.975 83.951C54.399 84.162 54.617 84.641 54.497 85.099C51.405 96.93 45.579 128.63 55.618 133.176C57.687 134.113 59.404 134.065 60.865 133.027C68.618 127.53 67.701 96.639 66.693 85.201C66.647 84.676 67.015 84.205 67.537 84.125C68.059 84.048 68.552 84.383 68.666 84.896C68.729 85.185 75.214 113.871 86.503 119.109C89.003 120.27 91.497 120.163 94.129 118.779C96.641 117.461 98.014 115.615 98.326 113.135C99.868 100.885 75.484 78.734 75.237 78.511C74.896 78.204 74.808 77.704 75.024 77.299C75.24 76.894 75.698 76.69 76.148 76.798C89.075 80.006 123.39 85.977 126.897 75.216C127.557 73.191 127.34 71.616 126.234 70.403C120.147 63.721 89.976 68.774 78.867 71.287C78.367 71.4 77.859 71.115 77.698 70.628C77.535 70.141 77.768 69.609 78.237 69.399C78.542 69.262 108.753 55.588 113.216 42.519C114.046 40.091 113.913 37.91 112.813 35.851C111.958 34.251 110.802 33.429 109.28 33.337C109.177 33.331 109.074 33.328 108.97 33.328C99.587 33.328 80.257 57.941 73.528 67.536C73.239 67.952 72.681 68.083 72.235 67.842C71.788 67.601 71.593 67.064 71.78 66.593C71.965 66.13 90.11 20.137 83.225 5.96903C82.316 4.09803 81.037 2.94103 79.316 2.43203C77.368 1.85603 75.676 2.16403 74.138 3.37603C62.542 12.516 65.157 65.613 65.185 66.148C65.211 66.657 64.85 67.104 64.347 67.187C63.843 67.268 63.361 66.96 63.223 66.468C63.119 66.099 52.739 29.415 37.822 21.423C34.823 19.817 31.935 19.501 28.993 20.462C26.931 21.134 25.681 22.358 25.173 24.203C23.852 28.997 27.452 37.837 35.585 49.766C41.83 58.926 48.586 66.682 48.653 66.759C48.959 67.11 48.983 67.624 48.712 68.001C48.44 68.38 47.941 68.518 47.515 68.34C47.208 68.211 16.685 55.588 6.122 61.89C4.117 63.085 3.022 64.876 2.775 67.365C2.508 70.047 3.287 72.203 5.154 73.956C14.529 82.759 46.804 77.597 47.13 77.543C47.622 77.465 48.109 77.766 48.251 78.25C48.393 78.735 48.149 79.25 47.686 79.449C47.336 79.599 12.75 94.648 17.35 109.9C17.854 111.571 18.686 112.495 19.894 112.723C27.291 114.125 46.122 92.629 52.745 84.226C52.939 83.981 53.232 83.847 53.53 83.847Z" fill="#FFCD28"/>
<path d="M64.188 66.202C64.188 66.202 60.535 -4.16501 79.601 1.47499C96.743 6.54599 72.712 66.963 72.712 66.963C72.712 66.963 105.547 20.139 113.697 35.38C121.988 50.886 78.649 70.311 78.649 70.311C78.649 70.311 133.597 57.891 127.851 75.526C123.287 89.531 75.909 77.769 75.909 77.769C75.909 77.769 112.151 110.449 94.596 119.665C77.361 128.713 67.692 85.113 67.692 85.113C67.692 85.113 72.704 142.01 55.208 134.088C42.198 128.197 53.531 84.846 53.531 84.846C53.531 84.846 21.142 125.939 16.394 110.19C11.482 93.899 47.293 78.53 47.293 78.53C47.293 78.53 -0.112006 86.295 1.78199 67.266C3.60899 48.909 47.902 67.418 47.902 67.418C47.902 67.418 11.061 25.255 28.686 19.511C49.295 12.796 64.188 66.202 64.188 66.202Z" fill="#FFCD28"/>
</g>
<defs>
<clipPath id="clip0_9_190">
<rect width="128.549" height="135.697" fill="white" transform="translate(0.724648 0.152344)"/>
</clipPath>
</defs>
</svg>
