<svg width="137" height="127" viewBox="0 0 137 127" fill="none" xmlns="http://www.w3.org/2000/svg">
<g clip-path="url(#clip0_9_189)">
<path d="M69.095 61.305C69.095 61.305 133.835 33.4908 135.152 53.3298C136.336 71.1669 71.3354 69.5645 71.3354 69.5645C71.3354 69.5645 126.637 84.1362 115.165 97.0633C103.494 110.214 70.2526 76.2939 70.2526 76.2939C70.2526 76.2939 100.947 123.532 82.4131 124.254C67.6943 124.826 62.3072 76.3085 62.3072 76.3085C62.3072 76.3085 44.2133 121.63 29.4843 108.357C15.0239 95.3265 52.5705 71.146 52.5705 71.146C52.5705 71.146 0.936982 95.5666 2.30426 76.4094C3.32116 62.164 47.9131 57.7701 47.9131 57.7701C47.9131 57.7701 -1.85834 41.6305 11.269 31.7185C24.8479 21.4649 51.6757 49.7298 51.6757 49.7298C51.6757 49.7298 27.9624 7.95407 46.4684 3.13565C64.3209 -1.51272 62.31 46.4499 62.31 46.4499C62.31 46.4499 89.0915 -2.72054 100.588 11.8213C114.029 28.8257 69.095 61.305 69.095 61.305Z" fill="#FFCD28"/>
</g>
<defs>
<clipPath id="clip0_9_189">
<rect width="137" height="127" fill="white"/>
</clipPath>
</defs>
</svg>
