<?xml version="1.0" encoding="UTF-8"?>
<!-- This file is generated by npm run build:icons -->
<svg xmlns="http://www.w3.org/2000/svg" xmlns:xlink="http://www.w3.org/1999/xlink" width="0" height="0">
<defs>
<symbol viewBox="0 0 24 25" id="bluesky">
<path d="M12.0002 11.8881C11.0942 10.1271 8.62824 6.8441 6.33524 5.2261C4.13824 3.6761 3.30124 3.9431 2.75224 4.1931C2.11624 4.4781 2.00024 5.4551 2.00024 6.0281C2.00024 6.6031 2.31524 10.7371 2.52024 11.4281C3.20024 13.7081 5.61424 14.4781 7.84024 14.2311C4.58024 14.7141 1.68324 15.9011 5.48024 20.1291C9.65824 24.4541 11.2062 19.2021 12.0002 16.5391C12.7942 19.2021 13.7082 24.2651 18.4442 20.1291C22.0002 16.5391 19.4212 14.7141 16.1612 14.2311C18.3862 14.4781 20.8012 13.7081 21.4802 11.4281C21.6852 10.7381 22.0002 6.6031 22.0002 6.0291C22.0002 5.4541 21.8842 4.4791 21.2482 4.1911C20.6992 3.9431 19.8622 3.6741 17.6652 5.2241C15.3722 6.8451 12.9052 10.1281 12.0002 11.8881Z"></path>
</symbol>
<symbol viewBox="0 0 24 24" id="check">
<path fill-rule="evenodd" clip-rule="evenodd" d="M20.0547 4.41793C20.5142 4.72429 20.6384 5.34516 20.3321 5.80468L11.3321 19.3047C11.1659 19.554 10.8967 19.7156 10.5985 19.7451C10.3004 19.7746 10.0047 19.6689 9.79289 19.4571L3.79289 13.4571C3.40237 13.0666 3.40237 12.4334 3.79289 12.0429C4.18342 11.6524 4.81658 11.6524 5.20711 12.0429L10.3446 17.1803L18.6679 4.69528C18.9743 4.23576 19.5952 4.11158 20.0547 4.41793Z"></path>
</symbol>
<symbol viewBox="0 0 24 24" id="clipboard">
<path fill-rule="evenodd" clip-rule="evenodd" d="M13 2H11C9.69373 2 8.58249 2.83481 8.17066 4H7L6.82373 4.0051C5.24892 4.09634 4 5.40232 4 7V19L4.00509 19.1763C4.09634 20.7511 5.40232 22 7 22H17L17.1763 21.9949C18.7511 21.9037 20 20.5977 20 19V7L19.9949 6.82373C19.9037 5.24892 18.5977 4 17 4H15.8292C15.4174 2.83481 14.3062 2 13 2ZM15.8292 6H17L17.1166 6.00673C17.614 6.0645 18 6.48717 18 7V19L17.9933 19.1166C17.9355 19.614 17.5128 20 17 20H7L6.88338 19.9933C6.38604 19.9355 6 19.5128 6 19V7L6.00673 6.88338C6.06449 6.38604 6.48716 6 7 6H8.17066C8.5825 7.16519 9.69374 8 11 8H13C14.3062 8 15.4174 7.16519 15.8292 6Z"></path>
</symbol>
<symbol viewBox="0 0 24 25" id="email">
<path fill-rule="evenodd" clip-rule="evenodd" d="M2.11351 4.86364C2.74645 4.2307 3.60489 3.87512 4.5 3.87512H19.5C20.3951 3.87512 21.2536 4.2307 21.8865 4.86364C22.5194 5.49657 22.875 6.35502 22.875 7.25012V7.493C22.875 7.49304 22.875 7.49296 22.875 7.493C22.875 7.49321 22.875 7.49354 22.875 7.49375V17.7501C22.875 18.6452 22.5194 19.5037 21.8865 20.1366C21.2536 20.7695 20.3951 21.1251 19.5 21.1251H4.5C3.60489 21.1251 2.74645 20.7695 2.11351 20.1366C1.48058 19.5037 1.125 18.6452 1.125 17.7501V7.49475V7.25012C1.125 6.35502 1.48058 5.49657 2.11351 4.86364ZM3.375 7.25012V7.49412C3.375 7.49421 3.375 7.49404 3.375 7.49412C3.37502 7.68611 3.42417 7.87527 3.51778 8.0429C3.61143 8.21059 3.74646 8.35152 3.91 8.45225L11.4095 13.0659C11.5869 13.1752 11.7917 13.2334 12 13.2334C12.2083 13.2334 12.4126 13.1755 12.59 13.0662L20.09 8.45125C20.2533 8.35053 20.3886 8.20944 20.4822 8.04189C20.5758 7.87427 20.625 7.68549 20.625 7.4935C20.625 7.49341 20.625 7.49358 20.625 7.4935V7.25012C20.625 6.95175 20.5065 6.66561 20.2955 6.45463C20.0845 6.24365 19.7984 6.12512 19.5 6.12512H4.5C4.20163 6.12512 3.91548 6.24365 3.7045 6.45463C3.49353 6.66561 3.375 6.95175 3.375 7.25012ZM20.625 10.7639L13.77 14.982C13.7699 14.9821 13.7701 14.9819 13.77 14.982C13.2379 15.3096 12.6249 15.4834 12 15.4834C11.375 15.4834 10.7622 15.3098 10.23 14.982L3.375 10.7648V17.7501C3.375 18.0485 3.49353 18.3346 3.7045 18.5456C3.91548 18.7566 4.20163 18.8751 4.5 18.8751H19.5C19.7984 18.8751 20.0845 18.7566 20.2955 18.5456C20.5065 18.3346 20.625 18.0485 20.625 17.7501V10.7639Z"></path>
</symbol>
<symbol viewBox="0 0 24 25" id="instagram">
<path d="M7.80024 2.50012H16.2002C19.4002 2.50012 22.0002 5.10012 22.0002 8.30012V16.7001C22.0002 18.2384 21.3892 19.7136 20.3015 20.8013C19.2138 21.8891 17.7385 22.5001 16.2002 22.5001H7.80024C4.60024 22.5001 2.00024 19.9001 2.00024 16.7001V8.30012C2.00024 6.76187 2.61131 5.28661 3.69902 4.1989C4.78674 3.11119 6.26199 2.50012 7.80024 2.50012ZM7.60024 4.50012C6.64546 4.50012 5.72979 4.87941 5.05466 5.55454C4.37953 6.22967 4.00024 7.14534 4.00024 8.10012V16.9001C4.00024 18.8901 5.61024 20.5001 7.60024 20.5001H16.4002C17.355 20.5001 18.2707 20.1208 18.9458 19.4457C19.621 18.7706 20.0002 17.8549 20.0002 16.9001V8.10012C20.0002 6.11012 18.3902 4.50012 16.4002 4.50012H7.60024ZM17.2502 6.00012C17.5818 6.00012 17.8997 6.13182 18.1341 6.36624C18.3685 6.60066 18.5002 6.9186 18.5002 7.25012C18.5002 7.58164 18.3685 7.89958 18.1341 8.134C17.8997 8.36843 17.5818 8.50012 17.2502 8.50012C16.9187 8.50012 16.6008 8.36843 16.3664 8.134C16.1319 7.89958 16.0002 7.58164 16.0002 7.25012C16.0002 6.9186 16.1319 6.60066 16.3664 6.36624C16.6008 6.13182 16.9187 6.00012 17.2502 6.00012ZM12.0002 7.50012C13.3263 7.50012 14.5981 8.02691 15.5358 8.96459C16.4735 9.90227 17.0002 11.174 17.0002 12.5001C17.0002 13.8262 16.4735 15.098 15.5358 16.0357C14.5981 16.9733 13.3263 17.5001 12.0002 17.5001C10.6742 17.5001 9.40239 16.9733 8.46471 16.0357C7.52703 15.098 7.00024 13.8262 7.00024 12.5001C7.00024 11.174 7.52703 9.90227 8.46471 8.96459C9.40239 8.02691 10.6742 7.50012 12.0002 7.50012ZM12.0002 9.50012C11.2046 9.50012 10.4415 9.81619 9.87892 10.3788C9.31631 10.9414 9.00024 11.7045 9.00024 12.5001C9.00024 13.2958 9.31631 14.0588 9.87892 14.6214C10.4415 15.1841 11.2046 15.5001 12.0002 15.5001C12.7959 15.5001 13.559 15.1841 14.1216 14.6214C14.6842 14.0588 15.0002 13.2958 15.0002 12.5001C15.0002 11.7045 14.6842 10.9414 14.1216 10.3788C13.559 9.81619 12.7959 9.50012 12.0002 9.50012Z"></path>
</symbol>
<symbol viewBox="0 0 24 25" id="threads">
<path fill-rule="evenodd" clip-rule="evenodd" d="M5.45036 5.12312C6.99736 3.47412 9.24036 2.50012 12.0174 2.50012C16.5824 2.50012 19.6094 5.13112 20.5674 8.77712C20.6347 9.03372 20.5974 9.30657 20.4636 9.53564C20.3298 9.76472 20.1105 9.93126 19.8539 9.99862C19.5973 10.066 19.3244 10.0287 19.0953 9.89485C18.8663 9.76104 18.6997 9.54172 18.6324 9.28512C17.9054 6.52212 15.6764 4.50012 12.0164 4.50012C9.73036 4.50012 8.03636 5.28912 6.91036 6.49012C5.77436 7.70212 5.14136 9.41312 5.14136 11.3751V13.6251C5.14136 15.5871 5.77436 17.2981 6.91036 18.5091C8.03636 19.7121 9.73036 20.5001 12.0164 20.5001C13.6714 20.5001 14.9844 20.1161 15.9924 19.4951C17.0074 18.8701 17.6124 18.0411 17.7824 17.0901C17.9774 15.9941 17.7374 15.2421 17.3244 14.6991C17.0979 14.407 16.8225 14.1562 16.5104 13.9581C16.3754 14.7071 16.1344 15.4141 15.7704 15.9681C14.4284 18.0071 11.8624 18.1821 10.1704 17.5071C9.25436 17.1421 8.46936 16.1431 8.22536 15.0721C8.07722 14.4583 8.12656 13.8133 8.36636 13.2291C8.63136 12.5931 9.12236 12.0511 9.82136 11.6391C10.5134 11.2301 11.5414 11.0421 12.5604 11.0141C13.1744 10.9971 13.8404 11.0381 14.5104 11.1471C14.3704 10.4971 14.1334 10.0121 13.8664 9.76312C13.3824 9.31312 12.5804 8.99612 11.7764 9.00112C10.9994 9.00712 10.3404 9.30612 9.94636 9.93612C9.80579 10.161 9.58164 10.3209 9.32322 10.3805C9.06479 10.4402 8.79326 10.3947 8.56836 10.2541C8.34345 10.1136 8.1836 9.88941 8.12396 9.63098C8.06433 9.37256 8.10979 9.10103 8.25036 8.87612C9.08736 7.53812 10.4664 7.01112 11.7634 7.00112C13.0334 6.99212 14.3414 7.47312 15.2294 8.29912C16.1274 9.13512 16.5134 10.5061 16.6134 11.7531C17.4874 12.1341 18.3134 12.6931 18.9184 13.4901C19.6994 14.5201 20.0354 15.8481 19.7514 17.4411C19.4614 19.0651 18.4364 20.3391 17.0414 21.1981C15.6734 22.0401 13.9854 22.5001 12.0164 22.5001C9.24036 22.5001 6.99636 21.5261 5.45136 19.8771C3.91536 18.2391 3.14136 16.0131 3.14136 13.6251V11.3751C3.14136 8.98712 3.91536 6.76112 5.45136 5.12312H5.45036ZM14.6004 13.2001C13.9481 13.0595 13.2814 12.997 12.6144 13.0141C11.7234 13.0381 11.0984 13.2071 10.8374 13.3611C10.4534 13.5881 10.2874 13.8191 10.2134 13.9981C10.1344 14.1988 10.1211 14.4194 10.1754 14.6281C10.2974 15.1641 10.7004 15.5661 10.9114 15.6491C12.0374 16.0991 13.4464 15.8611 14.0994 14.8691C14.3344 14.5111 14.5214 13.9091 14.5994 13.2001H14.6004Z"></path>
</symbol>
<symbol viewBox="0 0 24 25" id="x">
<path d="M13.7948 11.0331L20.6798 2.50012H17.6068L12.3518 9.01712L7.68982 2.50012H0.999817L8.80582 13.4101L1.46982 22.5001H4.54382L10.2488 15.4301L15.3098 22.5001H21.9998L13.7948 11.0331ZM11.4148 13.9831L9.96982 11.9641L4.35982 4.12712H6.66982L11.1978 10.4441L12.6408 12.4641L18.6588 20.8731H16.3488L11.4148 13.9831Z"></path>
</symbol>
</defs>
</svg>
